<svg width="251" height="96" viewBox="0 0 251 96" fill="none" xmlns="http://www.w3.org/2000/svg">
<g clip-path="url(#clip0)">
<path d="M0 0V55.9152C0 56.0937 0 56.2543 0 56.4328C0 78.2599 17.7671 96 39.5876 96C60.926 96 78.3717 79.0452 79.1395 57.8963H79.1753V0H0Z" fill="#C92317"/>
<path d="M4.85693 68.4977C4.80336 68.3905 4.76765 68.2655 4.73193 68.1584C4.76765 68.2655 4.82122 68.3905 4.85693 68.4977Z" fill="#BBBDC0"/>
<path d="M76.4432 3.01617V8.99498L8.87462 76.5287C8.73177 76.3324 8.60677 76.1182 8.48178 75.9219C8.37464 75.7613 8.2675 75.6007 8.17822 75.44C8.16036 75.4043 8.12465 75.3686 8.10679 75.3151C7.9818 75.1188 7.87466 74.9403 7.76752 74.744C7.64253 74.5477 7.53539 74.3335 7.41039 74.1372C7.07112 73.5304 6.73185 72.8879 6.42829 72.2632C6.32115 72.0491 6.23187 71.8349 6.12473 71.6207C6.10688 71.585 6.08902 71.5494 6.07116 71.4958C6.07116 71.478 6.05331 71.4601 6.05331 71.4423C5.98188 71.2638 5.91046 71.1032 5.82117 70.9425C5.78546 70.8712 5.74975 70.7998 5.73189 70.7284C5.71404 70.6927 5.69618 70.6391 5.67832 70.6035C5.58904 70.425 5.51761 70.2287 5.44619 70.0502C5.39262 69.9074 5.32119 69.7468 5.26763 69.604C5.23191 69.5326 5.1962 69.4434 5.17834 69.372L5.12477 69.2471C5.10692 69.2114 5.08906 69.1757 5.08906 69.14C5.03549 68.9794 4.96407 68.8366 4.9105 68.6759C4.85693 68.551 4.82122 68.4261 4.7855 68.319C4.76765 68.2655 4.74979 68.2298 4.73193 68.1762L69.9078 3.03402H76.4432V3.01617Z" fill="#CDCFD1"/>
<path d="M64.8724 58.1997V76.6536C62.4618 76.9214 58.5156 76.9035 57.0692 76.5823C55.5157 76.2253 54.1586 76.0825 53.2836 76.029C51.4801 75.9041 51.3016 76.029 51.1409 76.1718C50.998 76.2789 50.8909 76.4395 50.873 76.618C50.7659 76.6893 50.4802 76.8143 50.0338 76.8143C49.5874 76.8143 49.3017 76.6893 49.1945 76.618C49.1588 76.4395 49.0695 76.2789 48.9267 76.1718C48.7481 76.029 48.5874 75.9041 46.766 76.029C45.8911 76.1004 44.534 76.2432 42.9805 76.5823C41.5341 76.9035 37.5879 76.9392 35.1772 76.6536V58.1997C35.6058 58.2354 36.1593 58.271 36.8022 58.3067V73.9052C36.8022 74.28 37.07 74.5834 37.4271 74.6548C38.4271 74.8332 39.7128 74.9403 40.927 74.9403C41.802 74.9403 43.0341 74.8868 43.9804 74.6369C45.3375 74.28 46.5339 74.1015 47.5517 74.1015C48.6053 74.1015 49.1767 74.2978 49.4266 74.4049C49.4802 74.4584 49.5516 74.512 49.6409 74.5655C49.6766 74.5834 49.6945 74.5834 49.7302 74.6012C49.9266 74.7083 50.1409 74.7083 50.3552 74.6191C50.4445 74.5834 50.5159 74.5298 50.5695 74.4763C50.7659 74.4049 51.2837 74.2443 52.3015 74.2443C53.3551 74.2443 54.6407 74.4049 56.0871 74.744C56.8728 74.9225 57.9977 75.0296 59.2477 75.0296C60.4976 75.0296 61.7118 74.9403 62.6761 74.7618C63.0868 74.6905 63.3903 74.3335 63.3903 73.9052V58.3067C63.9439 58.271 64.4796 58.2354 64.8724 58.1997Z" fill="white"/>
<path d="M60.051 61.8226C59.6581 61.8583 59.2117 61.8762 58.7653 61.8762C57.7118 61.8762 56.5511 61.7691 55.4083 61.4479C54.1762 61.1088 53.1762 61.1444 52.4798 61.2872V59.7524C53.337 59.6274 54.4798 59.6274 55.819 59.9844C57.3189 60.3949 58.8903 60.3949 60.0688 60.2878V61.8226H60.051ZM60.051 65.7669C59.6581 65.8026 59.2117 65.8204 58.7653 65.8204C57.7118 65.8204 56.5511 65.7133 55.4083 65.3921C54.1762 65.053 53.1762 65.0887 52.4798 65.2315V63.6966C53.337 63.5717 54.4798 63.5717 55.819 63.9286C57.3011 64.3391 58.8903 64.3391 60.0688 64.232V65.7669H60.051ZM60.051 69.7111C59.6581 69.7468 59.2117 69.7646 58.7653 69.7646C57.7118 69.7646 56.5511 69.6575 55.4083 69.3363C54.1762 68.9972 53.1762 69.0329 52.4798 69.1757V67.6408C53.337 67.5159 54.4798 67.5159 55.819 67.8728C57.3189 68.2833 58.8903 68.2833 60.0688 68.1762V69.7111H60.051ZM58.8903 56.7897C57.7475 56.7897 56.7832 56.7005 56.0154 56.522C54.9262 56.2722 53.8726 56.1294 52.962 56.1294C52.1227 56.1294 51.4085 56.2365 50.8906 56.4506V72.6023C51.2656 72.5488 51.712 72.4952 52.2834 72.4952C53.4798 72.4952 54.8726 72.6737 56.4618 73.0485C56.7832 73.1199 57.2118 73.1734 57.6761 73.227C58.1582 73.2627 58.676 73.2805 59.2474 73.2805C60.0867 73.2805 60.9259 73.227 61.658 73.1377V56.6291C60.9259 56.7183 59.926 56.7897 58.8903 56.7897Z" fill="white"/>
<path d="M47.5697 61.2872C46.8555 61.1445 45.8734 61.1088 44.6413 61.4479C43.4985 61.7691 42.3199 61.8762 41.2843 61.8762C40.82 61.8762 40.3736 61.8583 39.9807 61.8226V60.3056C41.1593 60.4127 42.7485 60.4127 44.2484 60.0022C45.5877 59.6274 46.7126 59.6274 47.5876 59.7702V61.2872H47.5697ZM47.5697 65.2315C46.8555 65.0887 45.8734 65.053 44.6413 65.3921C43.4985 65.7133 42.3199 65.8204 41.2843 65.8204C40.82 65.8204 40.3736 65.8026 39.9807 65.7669V64.2499C41.1593 64.3569 42.7485 64.357 44.2484 63.9465C45.5877 63.5717 46.7126 63.5717 47.5876 63.7145V65.2315H47.5697ZM47.5697 69.1757C46.8555 69.0329 45.8734 68.9972 44.6413 69.3363C43.4985 69.6576 42.3199 69.7646 41.2843 69.7646C40.82 69.7646 40.3736 69.7468 39.9807 69.7111V68.1941C41.1593 68.3012 42.7485 68.3012 44.2484 67.8907C45.5877 67.5159 46.7126 67.5159 47.5876 67.6408V69.1757H47.5697ZM47.0697 56.0223C46.1412 56.0223 45.0877 56.1651 43.9984 56.4149C43.2485 56.5934 42.2842 56.6827 41.1414 56.6827C40.0522 56.6827 38.9986 56.5934 38.3022 56.522V73.2449C39.1058 73.3519 40.0165 73.4055 40.9093 73.4055C42.0164 73.4055 42.9628 73.3162 43.5877 73.1556C45.0698 72.7808 46.3912 72.5667 47.534 72.5667C48.1947 72.5667 48.7304 72.638 49.1589 72.7273V56.3257C48.6054 56.1294 47.909 56.0223 47.0697 56.0223Z" fill="white"/>
<path d="M4.85693 68.7297C4.80336 68.6225 4.76765 68.4976 4.73193 68.3904C4.76765 68.4976 4.82122 68.6225 4.85693 68.7297Z" fill="#BBBDC0"/>
<path d="M38.177 20.3458C37.0164 21.3452 36.3914 22.6481 36.3735 22.6659C36.3735 22.6481 37.8556 22.773 39.1234 21.7914C40.4091 20.8098 40.7841 19.0786 40.7662 19.0786C40.7662 19.0608 39.3377 19.3464 38.177 20.3458Z" fill="white"/>
<path d="M38.2483 16.3837C37.3555 17.5795 37.0519 18.9716 37.0519 18.9716C37.0341 18.9716 38.534 18.8109 39.5518 17.6152C40.5875 16.4194 40.5161 14.6347 40.4982 14.6525C40.4803 14.6525 39.159 15.188 38.2483 16.3837Z" fill="white"/>
<path d="M37.3376 12.4752C36.7662 13.8316 36.8198 15.2415 36.8019 15.2593C36.7841 15.2593 38.2126 14.831 38.909 13.4568C39.6232 12.0825 39.1054 10.3335 39.0875 10.3335C39.0875 10.3335 37.9269 11.1188 37.3376 12.4752Z" fill="white"/>
<path d="M35.4091 8.74511C35.2126 10.2086 35.6412 11.6185 35.6233 11.6185C35.6055 11.6185 36.8911 10.9403 37.2304 9.44115C37.5697 7.94199 36.5519 6.26435 36.5519 6.2822C36.534 6.26435 35.6055 7.28164 35.4091 8.74511Z" fill="white"/>
<path d="M28.7128 33.8204C27.0343 33.7847 25.3201 34.3204 25.3022 34.3204C25.3022 34.3025 26.1594 35.3561 27.945 35.481C29.7485 35.606 31.6056 34.6061 31.5698 34.6061C31.5698 34.5882 30.4092 33.8561 28.7128 33.8204Z" fill="white"/>
<path d="M27.3021 32.0178C26.8914 33.3742 25.2843 34.3201 25.2843 34.3023C25.2665 34.3023 24.9986 33.053 25.4986 31.7858C25.9986 30.5187 26.945 29.6085 26.9628 29.5906C26.945 29.6085 27.7307 30.6793 27.3021 32.0178Z" fill="white"/>
<path d="M32.3915 31.072C30.7665 31.322 29.2845 32.1077 29.2666 32.1077C29.2666 32.0898 30.3737 32.9469 32.1058 32.7683C33.8557 32.5898 35.3735 31.322 35.3556 31.322C35.3556 31.322 34.0164 30.822 32.3915 31.072Z" fill="white"/>
<path d="M30.5521 29.5906C30.5164 30.947 29.2664 32.1071 29.2664 32.1071C29.2486 32.1071 28.6415 30.9827 28.7665 29.6799C28.8914 28.3949 29.57 27.3597 29.57 27.3597C29.5521 27.3597 30.5878 28.2521 30.5521 29.5906Z" fill="white"/>
<path d="M35.2128 27.8059C33.695 28.3235 32.4807 29.3408 32.4629 29.3408C32.4629 29.3229 33.7485 29.9654 35.3735 29.4835C37.0163 29.0195 38.1769 27.5382 38.1591 27.5382C38.1769 27.5382 36.7484 27.2884 35.2128 27.8059Z" fill="white"/>
<path d="M33.0521 26.7172C33.3735 28.0201 32.4628 29.3408 32.4628 29.3408C32.445 29.3408 31.57 28.377 31.3379 27.1099C31.1236 25.8606 31.5164 24.754 31.5164 24.7362C31.4986 24.754 32.7307 25.4322 33.0521 26.7172Z" fill="white"/>
<path d="M37.1589 24.2008C35.784 24.9682 34.8555 26.1461 34.8555 26.164C34.8555 26.1461 36.2661 26.5388 37.7482 25.7892C39.2481 25.0574 40.016 23.4155 39.9981 23.4155C39.9803 23.3977 38.5339 23.4155 37.1589 24.2008Z" fill="white"/>
<path d="M34.7665 23.5226C35.3915 24.7183 34.8558 26.164 34.8379 26.1461C34.8201 26.1461 33.713 25.3787 33.1773 24.2008C32.6416 23.0407 32.7666 21.8985 32.7666 21.8806C32.7666 21.8985 34.1415 22.3447 34.7665 23.5226Z" fill="white"/>
<path d="M35.677 20.1316C36.5877 21.1846 36.4091 22.6659 36.3913 22.6481C36.3913 22.6481 35.0878 22.0948 34.2842 21.0597C33.4807 20.0245 33.32 18.9002 33.32 18.8823C33.3021 18.9002 34.7664 19.0786 35.677 20.1316Z" fill="white"/>
<path d="M35.7307 16.6336C36.8914 17.4902 37.0521 18.9894 37.0521 18.9716C37.0521 18.9716 35.6414 18.6681 34.6058 17.8115C33.5701 16.9548 33.1416 15.8661 33.1237 15.8483C33.1058 15.8661 34.5879 15.7769 35.7307 16.6336Z" fill="white"/>
<path d="M34.9271 13.1891C36.2842 13.8316 36.8199 15.2593 36.802 15.2593C36.802 15.2772 35.3556 15.2236 34.1057 14.5633C32.8736 13.903 32.1593 12.9035 32.1593 12.8857C32.1415 12.9035 33.5879 12.5466 34.9271 13.1891Z" fill="white"/>
<path d="M33.2129 9.88734C34.7307 10.2978 35.6414 11.6185 35.6235 11.6185C35.6235 11.6364 34.195 11.8505 32.7844 11.4043C31.3916 10.976 30.4095 10.0837 30.3916 10.0837C30.3916 10.1015 31.713 9.47685 33.2129 9.88734Z" fill="white"/>
<path d="M16.2673 33.8204C17.9458 33.7847 19.66 34.3204 19.6779 34.3204C19.6779 34.3025 18.8208 35.3561 17.0351 35.481C15.2316 35.606 13.3924 34.6061 13.4103 34.6061C13.4103 34.5882 14.5888 33.8561 16.2673 33.8204Z" fill="white"/>
<path d="M17.6777 32.0178C18.0884 33.3742 19.6954 34.3201 19.6954 34.3023C19.7133 34.3023 19.9811 33.053 19.4812 31.7858C18.9812 30.5187 18.0348 29.6085 18.0169 29.5906C18.0348 29.6085 17.267 30.6793 17.6777 32.0178Z" fill="white"/>
<path d="M12.6067 31.072C14.2316 31.322 15.7137 32.1077 15.7137 32.1077C15.7137 32.0898 14.6066 32.9469 12.8745 32.7683C11.1246 32.5898 9.60681 31.322 9.62467 31.322C9.64252 31.322 10.9639 30.822 12.6067 31.072Z" fill="white"/>
<path d="M14.4281 29.5906C14.4639 30.947 15.7138 32.1249 15.7138 32.1071C15.7317 32.1071 16.3388 30.9827 16.2138 29.6799C16.0888 28.3949 15.4103 27.3597 15.4103 27.3597C15.4281 27.3597 14.3924 28.2521 14.4281 29.5906Z" fill="white"/>
<path d="M9.76731 27.8059C11.2851 28.3235 12.4993 29.3408 12.5172 29.3408C12.5172 29.3229 11.2315 29.9654 9.6066 29.4835C7.96381 29.0195 6.80315 27.5382 6.821 27.5382C6.821 27.5382 8.23166 27.2884 9.76731 27.8059Z" fill="white"/>
<path d="M11.9281 26.7172C11.6067 28.0201 12.5173 29.3408 12.5173 29.3408C12.5352 29.3408 13.4102 28.377 13.6423 27.1099C13.8566 25.8606 13.4637 24.754 13.4637 24.7362C13.4816 24.754 12.2495 25.4322 11.9281 26.7172Z" fill="white"/>
<path d="M7.83898 24.2008C9.19607 24.9682 10.1425 26.1461 10.1425 26.164C10.1425 26.1461 8.7318 26.5388 7.24972 25.7892C5.74978 25.0574 4.98196 23.4155 4.99982 23.4155C4.99982 23.3977 6.44618 23.4155 7.83898 24.2008Z" fill="white"/>
<path d="M10.2137 23.5226C9.57084 24.7183 10.1244 26.164 10.1244 26.1461C10.1422 26.1461 11.2493 25.3787 11.785 24.2008C12.3207 23.0407 12.1957 21.8985 12.1957 21.8806C12.2136 21.8985 10.8386 22.3447 10.2137 23.5226Z" fill="white"/>
<path d="M6.80344 20.3458C7.9641 21.3452 8.58908 22.6481 8.58908 22.6659C8.58908 22.6481 7.107 22.773 5.83919 21.7914C4.55353 20.8098 4.17855 19.0786 4.1964 19.0786C4.21426 19.0608 5.64277 19.3464 6.80344 20.3458Z" fill="white"/>
<path d="M9.32103 20.1316C8.41036 21.1846 8.58892 22.6659 8.60678 22.6481C8.60678 22.6481 9.9103 22.0948 10.7138 21.0597C11.5174 20.0245 11.6781 18.9002 11.6781 18.8823C11.6781 18.9002 10.2139 19.0786 9.32103 20.1316Z" fill="white"/>
<path d="M6.73193 16.3837C7.62475 17.5795 7.92831 18.9716 7.92831 18.9716C7.94617 18.9716 6.44623 18.8109 5.42842 17.6152C4.4106 16.4194 4.48203 14.6525 4.49988 14.6525C4.49988 14.6525 5.83911 15.188 6.73193 16.3837Z" fill="white"/>
<path d="M9.2496 16.6336C8.08893 17.4902 7.92822 18.9894 7.92822 18.9716C7.92822 18.9716 9.33888 18.6682 10.3745 17.8115C11.4281 16.9548 11.8566 15.8661 11.8745 15.8661C11.8745 15.8661 10.3924 15.7769 9.2496 16.6336Z" fill="white"/>
<path d="M7.64279 12.4752C8.21419 13.8316 8.16062 15.2415 8.17848 15.2593C8.19634 15.2593 6.76783 14.831 6.07143 13.4568C5.35717 12.0825 5.87501 10.3335 5.89286 10.3514C5.89286 10.3335 7.07138 11.1188 7.64279 12.4752Z" fill="white"/>
<path d="M10.0531 13.1891C8.696 13.8316 8.16031 15.2593 8.17817 15.2593C8.17817 15.2772 9.62453 15.2236 10.8745 14.5633C12.1066 13.903 12.8208 12.9035 12.8208 12.8857C12.8387 12.9035 11.3923 12.5466 10.0531 13.1891Z" fill="white"/>
<path d="M9.57125 8.74511C9.76768 10.1907 9.35698 11.6007 9.35698 11.6185C9.37483 11.6185 8.08917 10.9403 7.7499 9.44115C7.41063 7.94199 8.42845 6.26435 8.42845 6.2822C8.4463 6.26435 9.37483 7.28164 9.57125 8.74511Z" fill="white"/>
<path d="M11.7673 9.88734C10.2495 10.2978 9.33885 11.6185 9.3567 11.6185C9.3567 11.6364 10.7852 11.8505 12.1959 11.4043C13.5887 10.976 14.5708 10.0837 14.5886 10.0837C14.5886 10.1015 13.2673 9.47685 11.7673 9.88734Z" fill="white"/>
<path d="M32.4452 5.9788C33.838 7.2281 33.963 8.76296 33.963 8.74511C33.9273 8.74511 32.4452 8.15615 31.2131 7.04963C29.981 5.92525 29.1953 4.49748 29.1953 4.49748C29.1596 4.47963 31.0524 4.72949 32.4452 5.9788Z" fill="white"/>
<path d="M25.517 34.374C25.8741 34.7133 26.6777 35.2847 27.9455 35.374C28.8383 35.4454 29.7311 35.2133 30.3382 35.0169C30.8025 34.874 31.1596 34.6955 31.356 34.6062C30.9989 34.4098 30.0168 33.9634 28.7133 33.9276C28.6597 33.9276 28.6062 33.9276 28.5347 33.9276C27.6419 33.9276 26.5884 34.0705 25.517 34.374ZM28.2669 35.5883C28.1597 35.5883 28.0526 35.5883 27.9276 35.5704C26.4277 35.4633 25.5527 34.7312 25.2492 34.3919L25.1777 34.374L25.2134 34.1955L25.2849 34.1776H25.3027C25.3206 34.1776 25.3384 34.1776 25.3563 34.1598C26.5527 33.8205 27.7669 33.6598 28.7312 33.6777C29.624 33.6955 30.3561 33.9098 30.8204 34.0883C31.2132 34.2312 31.5167 34.3919 31.6239 34.4633L31.7132 34.4812V34.5348V34.5883C31.7132 34.6597 31.6775 34.6597 31.5703 34.7133C31.5168 34.7312 31.4453 34.7847 31.3382 34.8205C31.1596 34.9097 30.8561 35.0347 30.4989 35.1597C29.9097 35.3919 29.0883 35.5883 28.2669 35.5883Z" fill="#DA0A1A"/>
<path d="M12.553 5.97881C11.1602 7.22811 11.0352 8.76297 11.0352 8.74512C11.053 8.74512 12.5351 8.15617 13.7672 7.04964C14.9993 5.92527 15.785 4.49749 15.8028 4.47964C15.8207 4.47964 13.9279 4.72951 12.553 5.97881Z" fill="white"/>
<path d="M26.9454 29.7869C26.624 30.1439 25.9811 30.8935 25.6061 31.8394C25.374 32.464 25.3204 33.0708 25.3204 33.4635C25.3204 33.7669 25.3562 33.9989 25.374 34.1417C25.5347 34.0524 25.8204 33.8383 26.124 33.5527C26.499 33.1958 26.9989 32.6425 27.2132 31.9822C27.4989 31.0541 27.1954 30.2331 26.9454 29.7869ZM25.3026 34.4272C25.3026 34.4272 25.2847 34.4272 25.3026 34.4272H25.249H25.2133V34.3558C25.1776 34.2309 25.124 33.8918 25.124 33.5349C25.124 33.1065 25.1597 32.4462 25.4276 31.768C25.8383 30.6972 26.5882 29.8762 26.8918 29.5728C26.8918 29.5728 26.8918 29.5728 26.9097 29.5549L26.9275 29.5192H27.1239L27.1061 29.6085C27.3739 30.0725 27.7668 31.0006 27.4454 32.0714C27.2311 32.7853 26.6775 33.3921 26.2668 33.7669C26.0168 33.981 25.8026 34.1417 25.6597 34.2487C25.374 34.3915 25.3204 34.4272 25.3026 34.4272Z" fill="#DA0A1A"/>
<path d="M29.4989 32.1249C29.9275 32.3926 30.856 32.8031 32.0881 32.6782C33.4988 32.5354 34.7309 31.6966 35.1237 31.3753C34.963 31.3218 34.713 31.2683 34.4094 31.2147C33.9452 31.1255 33.2131 31.0719 32.4095 31.179C31.5167 31.304 30.481 31.643 29.4989 32.1249ZM31.6238 32.9102C30.4096 32.9102 29.5704 32.4462 29.2311 32.2142H29.1597V32.0357L29.2132 32H29.2311C29.2311 32 29.2489 31.9821 29.2668 31.9821C30.3203 31.4646 31.4096 31.1076 32.356 30.9649C33.2131 30.8399 33.9809 30.9113 34.4809 31.0006C34.8916 31.0719 35.2308 31.179 35.3558 31.2326H35.4451V31.3396C35.4451 31.3932 35.4094 31.4289 35.338 31.4824C35.3023 31.5181 35.2308 31.5717 35.1416 31.6252C34.9809 31.7323 34.7309 31.9108 34.4273 32.0892C33.8738 32.3926 33.0345 32.7853 32.106 32.8745C31.9453 32.8924 31.7846 32.9102 31.6238 32.9102Z" fill="#DA0A1A"/>
<path d="M29.5878 27.5382C29.3735 27.9308 28.9628 28.7518 28.8735 29.6977C28.82 30.3224 28.945 30.9113 29.0521 31.304C29.1414 31.5895 29.2307 31.8215 29.2842 31.9465C29.4092 31.8215 29.6235 31.5895 29.8378 31.2683C30.1056 30.8756 30.427 30.2688 30.4449 29.6085C30.4627 28.6447 29.9449 27.913 29.5878 27.5382ZM29.1771 32.2142L29.1592 32.1428C29.0878 32.0357 28.9628 31.7501 28.8557 31.3932C28.7307 30.9827 28.5878 30.3581 28.6592 29.662C28.7664 28.5733 29.2485 27.6631 29.4628 27.3062C29.4628 27.3062 29.4628 27.3062 29.4628 27.2883L29.4806 27.2348L29.6771 27.1991V27.2883C30.0521 27.681 30.677 28.5019 30.6592 29.5728C30.6413 30.3045 30.2842 30.9649 29.9985 31.3932C29.8378 31.6431 29.6592 31.8394 29.5521 31.9465C29.3378 32.1785 29.3021 32.1785 29.2842 32.1785H29.2307L29.1771 32.2142Z" fill="#DA0A1A"/>
<path d="M32.6772 29.3051C33.1771 29.4835 34.1592 29.7156 35.3378 29.3765C36.1413 29.1444 36.8377 28.6626 37.2663 28.3056C37.5877 28.0379 37.8198 27.7702 37.9627 27.6274C37.552 27.5739 36.4449 27.5025 35.2485 27.913C34.4092 28.1985 33.5164 28.6983 32.6772 29.3051ZM34.1414 29.7691C33.3557 29.7691 32.7307 29.5728 32.445 29.4479L32.3736 29.4657L32.3379 29.3051L32.3915 29.2694C32.3915 29.2694 32.3915 29.2694 32.4093 29.2515C32.4093 29.2515 32.4272 29.2337 32.445 29.2337C33.32 28.5555 34.3021 28.0201 35.1771 27.7167C35.9806 27.449 36.7484 27.3776 37.2484 27.3776C37.677 27.3776 38.0341 27.4133 38.1769 27.449L38.2662 27.4311L38.2841 27.5382C38.3019 27.5917 38.3019 27.6096 38.0519 27.8773C37.9269 28.0022 37.7305 28.2164 37.4627 28.4484C36.9984 28.841 36.2842 29.3586 35.4092 29.6085C34.9628 29.7334 34.5342 29.7691 34.1414 29.7691Z" fill="#DA0A1A"/>
<path d="M31.5881 24.9147C31.4631 25.3252 31.3024 26.1818 31.4452 27.092C31.5524 27.6988 31.8381 28.2521 32.0345 28.5912C32.1952 28.8589 32.3559 29.0552 32.4452 29.1623C32.6416 28.841 33.1951 27.7881 32.9452 26.7529C32.713 25.807 31.9809 25.2002 31.5881 24.9147ZM32.3916 29.4835L32.3559 29.4122C32.2666 29.3229 32.0523 29.0552 31.8738 28.7518C31.6416 28.377 31.3381 27.8059 31.2309 27.1456C31.0345 26.0926 31.2845 25.111 31.4095 24.754C31.4095 24.754 31.4095 24.754 31.4095 24.7362V24.6827L31.5881 24.6113L31.6059 24.7005C31.8738 24.879 32.1238 25.0753 32.338 25.2895C32.7487 25.7178 33.0344 26.1997 33.1594 26.7172C33.338 27.4133 33.1594 28.1093 32.9809 28.5733C32.8737 28.841 32.7666 29.0552 32.6952 29.1801C32.5523 29.4478 32.5166 29.4478 32.4809 29.4657L32.4273 29.4835H32.3916Z" fill="#DA0A1A"/>
<path d="M35.0522 26.0747C35.57 26.1461 36.6235 26.2175 37.6949 25.6821C38.427 25.3252 38.9806 24.7362 39.302 24.3079C39.552 23.9866 39.7305 23.7011 39.8198 23.5226C39.4091 23.5583 38.302 23.6832 37.2128 24.29C36.4628 24.7005 35.695 25.343 35.0522 26.0747ZM35.7486 26.3424C35.3557 26.3424 35.0343 26.2889 34.8557 26.2532L34.7843 26.2711L34.7129 26.1104L34.7486 26.0569C34.7486 26.0569 34.7486 26.039 34.7665 26.039L34.7843 26.0212C35.4629 25.2181 36.2843 24.5399 37.0878 24.0759C37.802 23.6654 38.552 23.469 39.0341 23.3798C39.4627 23.2906 39.8198 23.2727 39.9627 23.2727L40.052 23.2549L40.0877 23.3441C40.1055 23.3798 40.1234 23.4155 39.9448 23.7189C39.8555 23.8617 39.7127 24.1115 39.5163 24.3793C39.1591 24.8433 38.5877 25.4679 37.7842 25.8606C37.0521 26.2532 36.32 26.3424 35.7486 26.3424Z" fill="#DA0A1A"/>
<path d="M32.8735 22.0591C32.8557 22.4875 32.8914 23.3263 33.2842 24.1651C33.7128 25.0931 34.4985 25.7713 34.7842 25.9855C34.8377 25.8427 34.9092 25.5572 34.927 25.2359C34.9627 24.8076 34.9627 24.1651 34.6592 23.594C34.2128 22.7195 33.3378 22.2554 32.8735 22.0591ZM34.802 26.2889L34.7663 26.2175C34.6592 26.1461 34.3913 25.9498 34.1235 25.6821C33.8021 25.3787 33.3735 24.8611 33.0878 24.2543C32.6414 23.2727 32.6414 22.2911 32.6593 21.9164V21.8985V21.8271L32.82 21.72L32.8557 21.7914C33.1592 21.9164 33.4449 22.0591 33.7128 22.2376C34.2306 22.5767 34.6235 22.9872 34.8556 23.4691C35.1949 24.1116 35.1949 24.8076 35.1413 25.2895C35.1056 25.5572 35.052 25.7892 35.0163 25.932C34.9449 26.2175 34.9092 26.2354 34.8913 26.2354L34.802 26.2889Z" fill="#DA0A1A"/>
<path d="M38.2485 20.4172C37.4271 21.1311 36.8557 22.0056 36.57 22.541C37.1056 22.5231 38.1413 22.3982 39.0698 21.6843C39.6948 21.2025 40.1055 20.5421 40.3198 20.0602C40.4805 19.7033 40.5876 19.382 40.6412 19.2036C40.2484 19.2928 39.177 19.6319 38.2485 20.4172ZM36.4807 22.7016C36.4807 22.7016 36.4807 22.7195 36.4807 22.7016C36.4807 22.7195 36.4807 22.7016 36.4807 22.7016ZM36.3557 22.7909L36.2485 22.6659L36.2842 22.6124C36.2842 22.6124 36.2842 22.6124 36.2842 22.5945C36.2842 22.5945 36.2842 22.5767 36.3021 22.5767C36.57 22.0591 37.1771 21.0597 38.1056 20.2744C38.7127 19.7568 39.3913 19.4177 39.8555 19.2393C40.2484 19.0786 40.6055 18.9894 40.7483 18.9716L40.8198 18.9359L40.8733 19.0251C40.8912 19.0608 40.9091 19.0786 40.8198 19.3999C40.7662 19.5605 40.6769 19.8282 40.5519 20.1138C40.3198 20.6313 39.8912 21.3452 39.2127 21.8807C38.1413 22.7016 36.9092 22.7909 36.4271 22.773L36.3557 22.7909Z" fill="#DA0A1A"/>
<path d="M33.4629 19.0429C33.5522 19.4534 33.8022 20.2565 34.3736 21.0061C35.0165 21.8271 35.9628 22.3268 36.3021 22.4874C36.32 22.1127 36.32 21.024 35.6057 20.203C34.9272 19.4534 33.9629 19.15 33.4629 19.0429ZM36.3735 22.8087L36.32 22.7552C36.195 22.7016 35.8914 22.5588 35.5521 22.3447C35.1593 22.0948 34.6058 21.6843 34.1772 21.1489C33.4987 20.2744 33.2665 19.3285 33.1951 18.9537V18.9359L33.1772 18.8645L33.3201 18.7395L33.3737 18.7931C33.6951 18.8466 34.0165 18.9537 34.3201 19.0786C34.9093 19.3106 35.3914 19.6497 35.7486 20.0602C36.2307 20.6135 36.4093 21.2917 36.4807 21.7736C36.5164 22.0413 36.5164 22.2733 36.5164 22.4161C36.5164 22.7016 36.4807 22.7195 36.4628 22.7552L36.3735 22.8087Z" fill="#DA0A1A"/>
<path d="M38.3377 16.4551C37.8556 17.0976 37.4449 17.9543 37.1949 18.8288C37.7127 18.7217 38.7127 18.4005 39.4448 17.5438C39.9448 16.9548 40.1769 16.2409 40.2662 15.7234C40.3555 15.3307 40.3733 14.9916 40.3733 14.8132C40.0162 14.9916 39.0341 15.5449 38.3377 16.4551ZM37.1592 19.0073C37.1592 19.0251 37.1413 19.0251 37.1592 19.0073C37.1413 19.0251 37.1592 19.0251 37.1592 19.0073ZM37.0342 19.1322L36.9092 19.0251L36.927 18.9537C36.927 18.9537 36.927 18.9359 36.927 18.918C37.177 17.9543 37.6056 17.0441 38.1413 16.3302C38.6234 15.7055 39.2127 15.2593 39.6055 14.9916C39.9805 14.7596 40.3019 14.599 40.409 14.5633L40.4805 14.5098L40.5519 14.5812C40.5697 14.599 40.6055 14.6347 40.5876 14.9559C40.5876 15.1344 40.5519 15.3843 40.4983 15.7055C40.3912 16.2588 40.159 17.0441 39.6055 17.6866C38.7484 18.7039 37.552 18.9894 37.0699 19.0786L37.0342 19.1322Z" fill="#DA0A1A"/>
<path d="M33.3024 15.9732C33.4988 16.3659 33.9273 17.1155 34.6773 17.7401C35.5166 18.4361 36.5522 18.7395 36.9272 18.8466C36.8558 18.4718 36.5701 17.4189 35.6773 16.7407C34.838 16.0982 33.8202 15.9911 33.3024 15.9732ZM37.0344 19.1143L36.9986 19.0965C36.8558 19.0786 36.5165 18.9716 36.1594 18.8466C35.713 18.6682 35.0702 18.3826 34.5166 17.9186C33.6416 17.1868 33.1774 16.2945 33.0167 15.9375V15.9197L32.981 15.8662L33.0881 15.7234L33.1417 15.7769C33.4809 15.7769 33.8202 15.8126 34.1416 15.884C34.7845 16.0089 35.338 16.2409 35.7844 16.58C36.3915 17.0441 36.7308 17.6509 36.9094 18.097C37.0879 18.5611 37.1594 18.9537 37.1415 19.0073V19.0786L37.1058 19.0965L37.0879 19.1143H37.0522H37.0344Z" fill="#DA0A1A"/>
<path d="M37.4451 12.5287C37.1237 13.2605 36.9451 14.1707 36.9272 15.0987C37.4094 14.9024 38.32 14.4027 38.8379 13.4211C39.1771 12.7607 39.2129 11.9933 39.195 11.4757C39.1771 11.0474 39.1057 10.7083 39.0521 10.5298C38.7307 10.744 37.8915 11.4757 37.4451 12.5287ZM36.8201 15.4021L36.6772 15.3129V15.2415V15.2058C36.6951 14.2064 36.8737 13.2248 37.2129 12.4216C37.7486 11.1723 38.8022 10.3692 38.9986 10.2443L39.0521 10.1908L39.1236 10.2443C39.1414 10.2621 39.1771 10.28 39.2486 10.6191C39.2843 10.7976 39.3378 11.0653 39.3557 11.3865C39.3914 11.9576 39.3557 12.7786 38.9807 13.5103C38.7129 14.0457 38.2843 14.5098 37.7486 14.8846C37.4986 15.063 37.1951 15.2237 36.8737 15.3486L36.8201 15.4021Z" fill="#DA0A1A"/>
<path d="M32.3558 12.9749C32.6594 13.3318 33.2665 13.9922 34.1593 14.4741C35.1414 15.0095 36.2485 15.1166 36.6413 15.1523C36.4806 14.7953 35.9449 13.7959 34.8736 13.2962C33.9093 12.8143 32.8736 12.8857 32.3558 12.9749ZM36.8199 15.3843L36.7842 15.3664H36.7306C36.6949 15.3664 36.6235 15.3664 36.5521 15.3486C36.4092 15.3307 36.1771 15.3129 35.9092 15.2593C35.4271 15.1701 34.7129 14.9916 34.07 14.6525C33.0343 14.0993 32.3558 13.2962 32.1058 12.9749C32.1058 12.9749 32.1058 12.9571 32.088 12.9571C32.088 12.9571 32.088 12.9571 32.088 12.9392L32.0522 12.8857L32.1415 12.725L32.213 12.7607C32.6772 12.6715 33.8915 12.5287 35.0164 13.0641C35.7307 13.4032 36.2128 13.9565 36.4985 14.367C36.7842 14.7775 36.9628 15.1701 36.9628 15.2415V15.3129L36.8735 15.3486L36.8556 15.3664L36.8199 15.3843Z" fill="#DA0A1A"/>
<path d="M35.5164 8.74513C35.4093 9.54825 35.4807 10.4942 35.695 11.4401C36.1057 11.1545 36.8913 10.4942 37.1235 9.40547C37.2842 8.67374 37.1235 7.90631 36.9449 7.38874C36.8021 6.96041 36.6235 6.62131 36.5342 6.46069C36.3021 6.7284 35.6771 7.56722 35.5164 8.74513ZM35.7307 11.6007C35.7307 11.6007 35.7307 11.6185 35.7307 11.6007C35.7307 11.6185 35.7307 11.6007 35.7307 11.6007ZM35.6771 11.7613L35.5343 11.7078V11.6364C35.5343 11.6364 35.5343 11.6185 35.5164 11.6007C35.2664 10.6012 35.195 9.58395 35.3021 8.72728C35.4985 7.3352 36.3199 6.35361 36.4806 6.21083C36.4806 6.21083 36.4985 6.21083 36.4985 6.19298L36.5342 6.15729L36.5699 6.17513H36.5878C36.6056 6.19298 36.6414 6.21083 36.8021 6.51423C36.8913 6.67486 37.0163 6.94256 37.1235 7.26381C37.3199 7.83492 37.5163 8.65589 37.3378 9.45902C37.2128 10.048 36.9271 10.5834 36.4806 11.0474C36.2664 11.2973 35.9985 11.5114 35.7128 11.6899L35.6771 11.7613Z" fill="#DA0A1A"/>
<path d="M30.6237 10.1194C31.0166 10.4228 31.8201 10.9939 32.8201 11.3151C33.5165 11.5293 34.2129 11.5828 34.6771 11.5828C34.9985 11.5828 35.2664 11.565 35.4271 11.5471C35.32 11.4222 35.1414 11.1902 34.8735 10.9582C34.5164 10.6191 33.9272 10.1908 33.195 9.99443C32.1058 9.69103 31.1237 9.94089 30.6237 10.1194ZM34.695 11.797C34.195 11.797 33.4808 11.7435 32.7486 11.5293C31.588 11.1723 30.6773 10.4763 30.3559 10.2086L30.338 10.1908C30.338 10.1908 30.3202 10.1908 30.3202 10.1729L30.2666 10.1194L30.3202 9.94089L30.3916 9.95874C30.838 9.78027 31.9808 9.42332 33.2486 9.76242C34.0522 9.97659 34.6771 10.4406 35.0521 10.7976C35.445 11.1545 35.7128 11.5114 35.7307 11.5828L35.7485 11.6364L35.7307 11.6542V11.6721L35.7128 11.6899L35.6771 11.7256L35.6414 11.7078C35.4985 11.7256 35.1414 11.7613 34.7486 11.7613H34.695V11.797Z" fill="#DA0A1A"/>
<path d="M29.4093 4.64028C29.7307 5.15785 30.4093 6.15729 31.2842 6.96041C32.2128 7.78138 33.2663 8.33465 33.8198 8.56666C33.7306 8.13833 33.427 7.01395 32.3735 6.06805C31.2842 5.08646 29.9271 4.72951 29.4093 4.64028ZM34.0163 8.87006H33.8555V8.85222C33.3734 8.63805 32.177 8.06694 31.1414 7.13888C30.1236 6.21083 29.3914 5.05076 29.1236 4.58674L29.0879 4.56889V4.47965V4.40827L29.1593 4.37257C29.1772 4.35472 29.2129 4.35472 29.5522 4.42611C29.7307 4.46181 30.0164 4.5332 30.3557 4.65813C30.945 4.85444 31.8021 5.24708 32.5342 5.88958C33.2663 6.54993 33.6413 7.28166 33.8377 7.78138C33.9448 8.06694 34.0163 8.29895 34.0341 8.45958C34.052 8.54881 34.0698 8.6202 34.0698 8.6559C34.0877 8.74513 34.0877 8.76298 34.0698 8.78083L34.0163 8.87006Z" fill="#DA0A1A"/>
<path d="M13.6425 34.6061C13.8389 34.6954 14.196 34.874 14.6603 35.0168C15.2496 35.2133 16.1602 35.4454 17.0531 35.374C18.3387 35.2847 19.1244 34.7133 19.4815 34.374C18.3387 34.0705 17.2138 33.9097 16.2852 33.9276C14.9639 33.9633 13.9996 34.4097 13.6425 34.6061ZM16.7138 35.5883C15.8745 35.5883 15.071 35.374 14.5175 35.1954C14.1603 35.0704 13.8568 34.9454 13.6782 34.8561C13.5711 34.8026 13.4818 34.7669 13.4461 34.749C13.3389 34.6954 13.3032 34.6776 13.3032 34.624V34.5883V34.5347L13.3925 34.5169C13.4996 34.4454 13.8032 34.2847 14.196 34.1419C14.6603 33.9633 15.3924 33.749 16.2852 33.7312C17.2673 33.7133 18.4637 33.874 19.6601 34.2133C19.678 34.2133 19.6958 34.2312 19.7137 34.2312H19.7315L19.803 34.249L19.8387 34.4276L19.7672 34.4454C19.4458 34.7669 18.5887 35.5168 17.0709 35.624C16.9459 35.5882 16.8388 35.5883 16.7138 35.5883Z" fill="#DA0A1A"/>
<path d="M18.0352 29.7869C17.7852 30.2331 17.4817 31.0541 17.7674 31.9822C17.9638 32.6425 18.4638 33.1958 18.8566 33.5527C19.1602 33.8383 19.4459 34.0346 19.6066 34.1417C19.6244 33.9989 19.6602 33.7669 19.6602 33.4635C19.6602 33.0708 19.6066 32.4462 19.3566 31.8394C18.9995 30.8935 18.3745 30.1439 18.0352 29.7869ZM19.6959 34.4272C19.6602 34.4272 19.6066 34.4094 19.3745 34.2487C19.2316 34.1417 19.0173 33.981 18.7673 33.7669C18.3388 33.3921 17.8031 32.7853 17.5888 32.0714C17.2495 30.9827 17.6602 30.0725 17.9281 29.6085L17.9102 29.5192H18.1067L18.1245 29.5549C18.1245 29.5549 18.1245 29.5549 18.1424 29.5728C18.4459 29.8762 19.178 30.715 19.6066 31.768C19.8744 32.4462 19.928 33.0887 19.9101 33.5349C19.9101 33.8918 19.8566 34.2309 19.8209 34.3558V34.4272H19.7852H19.6959Z" fill="#DA0A1A"/>
<path d="M9.85657 31.3753C10.2673 31.6788 11.4815 32.5354 12.8922 32.6782C14.1421 32.8031 15.0528 32.3926 15.4813 32.1249C14.4992 31.6431 13.4636 31.3218 12.5707 31.179C11.7672 31.0541 11.0351 31.1255 10.5708 31.2147C10.2673 31.2504 10.0173 31.3218 9.85657 31.3753ZM13.3564 32.9102C13.1957 32.9102 13.035 32.9102 12.8743 32.8924C11.9458 32.8031 11.1065 32.4105 10.553 32.1071C10.2316 31.9286 9.98157 31.7501 9.83872 31.6431C9.74943 31.5717 9.67801 31.5181 9.64229 31.5003C9.57087 31.4289 9.53516 31.411 9.53516 31.3575V31.2504H9.62444C9.74943 31.1969 10.1066 31.0898 10.4994 31.0184C10.9815 30.9292 11.7672 30.8578 12.6243 30.9827C13.5707 31.1255 14.6778 31.4824 15.7135 32C15.7313 32.0178 15.7492 32.0178 15.7492 32.0178H15.767L15.8206 32.0535V32.232H15.7492C15.4099 32.4462 14.5707 32.9102 13.3564 32.9102Z" fill="#DA0A1A"/>
<path d="M15.3921 27.5382C15.035 27.9308 14.5172 28.6447 14.535 29.5906C14.5529 30.251 14.8743 30.8578 15.1422 31.2504C15.3564 31.5717 15.5707 31.8037 15.6957 31.9286C15.7493 31.8037 15.8564 31.5895 15.9278 31.2861C16.035 30.9113 16.16 30.3224 16.1064 29.6799C16.0171 28.734 15.6064 27.9308 15.3921 27.5382ZM15.8028 32.2142H15.7493H15.6957C15.66 32.2142 15.6243 32.2142 15.4279 31.9821C15.3207 31.8572 15.16 31.6609 14.9815 31.4289C14.6779 31.0006 14.3386 30.3402 14.3208 29.6085C14.2851 28.5198 14.9279 27.6988 15.3029 27.3062V27.2169L15.4993 27.2526L15.5171 27.3062C15.5171 27.3062 15.5171 27.3062 15.5171 27.324C15.7314 27.6631 16.2135 28.5912 16.3207 29.6799C16.3921 30.3581 16.2493 31.0006 16.1243 31.411C16.0171 31.768 15.8921 32.0535 15.8207 32.1606L15.8028 32.2142Z" fill="#DA0A1A"/>
<path d="M7.01749 27.6274C7.14249 27.7702 7.37462 28.0379 7.71389 28.3056C8.14245 28.6804 8.82099 29.1623 9.64238 29.3765C10.8209 29.7156 11.8209 29.4657 12.303 29.3051C11.4816 28.6804 10.5709 28.1985 9.74952 27.913C8.53529 27.5204 7.42819 27.5739 7.01749 27.6274ZM10.8388 29.7691C10.4459 29.7691 10.0174 29.7156 9.57096 29.5906C8.696 29.3408 7.98174 28.8232 7.51747 28.4306C7.24963 28.1985 7.05321 28.0022 6.92821 27.8594C6.67822 27.5917 6.69608 27.5739 6.69608 27.5204L6.71394 27.4133L6.80322 27.4311C6.94607 27.3954 7.3032 27.3597 7.73175 27.3597C8.23173 27.3597 8.99955 27.4311 9.80309 27.6988C10.6959 28.0022 11.6602 28.5376 12.5351 29.2158C12.553 29.2337 12.553 29.2337 12.5708 29.2337C12.5708 29.2337 12.5887 29.2337 12.5887 29.2515L12.6423 29.2872L12.6065 29.4478H12.5351C12.2494 29.5728 11.6244 29.7691 10.8388 29.7691Z" fill="#DA0A1A"/>
<path d="M13.4102 24.9147C13.0174 25.1824 12.2674 25.807 12.0531 26.7351C11.8032 27.7702 12.3567 28.8232 12.5531 29.1444C12.6424 29.0374 12.8031 28.841 12.9638 28.5733C13.1781 28.2342 13.4459 27.681 13.5531 27.0742C13.6959 26.1818 13.5174 25.343 13.4102 24.9147ZM12.5888 29.4835L12.5353 29.4657L12.4817 29.4478C12.446 29.43 12.4281 29.43 12.2853 29.1623C12.2139 29.0374 12.1067 28.8232 11.9996 28.5555C11.821 28.0915 11.6603 27.3954 11.821 26.6994C11.946 26.1818 12.2138 25.7178 12.6424 25.2716C12.8567 25.0574 13.1067 24.8433 13.3745 24.6827L13.3924 24.5934L13.5709 24.6648V24.7183C13.5709 24.7183 13.5709 24.7183 13.5709 24.7362C13.6781 25.111 13.9281 26.0747 13.7495 27.1277C13.6245 27.7881 13.3388 28.377 13.1067 28.734C12.9102 29.0374 12.7138 29.3051 12.6245 29.3943L12.5888 29.4835Z" fill="#DA0A1A"/>
<path d="M5.16045 23.5226C5.24973 23.6832 5.4283 23.9866 5.67829 24.3079C6.01756 24.7362 6.55325 25.3251 7.28536 25.6821C8.35674 26.2175 9.39242 26.1461 9.92811 26.0747C9.28528 25.343 8.51745 24.7005 7.76748 24.29C6.6961 23.6832 5.57115 23.5583 5.16045 23.5226ZM9.23171 26.3424C8.6603 26.3424 7.92819 26.2532 7.19608 25.8784C6.4104 25.4858 5.82114 24.8611 5.46401 24.3971C5.26759 24.1294 5.10688 23.8974 5.03545 23.7367C4.85689 23.4333 4.87475 23.4155 4.8926 23.362L4.92832 23.2727L4.99974 23.2906C5.12474 23.2906 5.48186 23.3084 5.92827 23.3977C6.42825 23.4869 7.16037 23.6832 7.87462 24.0937C8.67816 24.5577 9.49955 25.2359 10.1781 26.039C10.196 26.0569 10.196 26.0569 10.196 26.0569C10.196 26.0569 10.196 26.0569 10.2138 26.0747L10.2495 26.1283L10.1781 26.2889L10.1067 26.2711C9.94596 26.3067 9.62455 26.3424 9.23171 26.3424Z" fill="#DA0A1A"/>
<path d="M12.1064 22.0591C11.6421 22.2554 10.7672 22.7195 10.3208 23.5761C10.0172 24.1472 9.99936 24.7897 10.0529 25.2181C10.0886 25.5572 10.1601 25.8249 10.1958 25.9677C10.4815 25.7535 11.285 25.0931 11.6957 24.1472C12.0886 23.3084 12.1243 22.4696 12.1064 22.0591ZM10.1779 26.2889L10.0886 26.2354C10.0529 26.2175 10.0351 26.1997 9.96365 25.932C9.92793 25.7892 9.87436 25.5572 9.83865 25.2895C9.78508 24.8076 9.80294 24.1116 10.1244 23.4691C10.3743 23.005 10.7672 22.5767 11.2672 22.2376C11.535 22.0591 11.8207 21.9164 12.1243 21.7914L12.16 21.72L12.3207 21.8271V21.8807C12.3207 21.8807 12.3207 21.8807 12.3207 21.8985C12.3385 22.2733 12.3385 23.2549 11.8921 24.2365C11.6064 24.8611 11.1779 25.3609 10.8565 25.6643C10.5886 25.932 10.3208 26.1461 10.2136 26.1997L10.1779 26.2889Z" fill="#DA0A1A"/>
<path d="M4.35698 19.2036C4.41055 19.382 4.49983 19.7033 4.6784 20.0602C4.89268 20.5421 5.30337 21.2025 5.92835 21.6843C6.85688 22.3982 7.89255 22.5231 8.42824 22.541C8.12468 22.0056 7.57113 21.1311 6.74974 20.4172C5.80335 19.6319 4.73197 19.2928 4.35698 19.2036ZM8.49967 22.7016C8.51752 22.7016 8.51752 22.7195 8.49967 22.7016C8.51752 22.7195 8.51752 22.7016 8.49967 22.7016ZM8.64252 22.7909L8.57109 22.7552C8.08897 22.7552 6.85688 22.6838 5.7855 21.8628C5.10695 21.3452 4.6784 20.6135 4.44627 20.0959C4.30341 19.7925 4.23199 19.5427 4.17842 19.382C4.08914 19.0608 4.08914 19.0251 4.12485 19.0072L4.17842 18.918L4.24985 18.9537C4.37484 18.9716 4.73197 19.0608 5.14267 19.2214C5.60693 19.3999 6.28547 19.7211 6.89259 20.2566C7.82112 21.0597 8.41039 22.0413 8.69609 22.5588C8.69609 22.5767 8.71394 22.5767 8.71394 22.5767V22.5945L8.74966 22.6481L8.64252 22.7909Z" fill="#DA0A1A"/>
<path d="M11.5352 19.0429C11.0352 19.15 10.0531 19.4534 9.41026 20.203C8.696 21.024 8.67814 22.1127 8.71386 22.4875C9.05313 22.3268 9.98166 21.8271 10.6423 21.0061C11.1959 20.2566 11.428 19.4534 11.5352 19.0429ZM8.60672 22.8087L8.51744 22.7373C8.49958 22.7195 8.46387 22.6838 8.46387 22.3982C8.46387 22.2554 8.46387 22.0234 8.49958 21.7557C8.57101 21.2917 8.74957 20.6135 9.23169 20.0424C9.58882 19.6319 10.0709 19.2928 10.6602 19.0608C10.9638 18.9359 11.2852 18.8466 11.6066 18.7752L11.6602 18.7217L11.803 18.8466L11.7852 18.918C11.7852 18.918 11.7852 18.918 11.7852 18.9359C11.7137 19.3107 11.4816 20.2566 10.8031 21.1311C10.3745 21.6843 9.82095 22.077 9.42811 22.3268C9.08884 22.541 8.78528 22.6838 8.66029 22.7373L8.60672 22.8087Z" fill="#DA0A1A"/>
<path d="M4.58896 14.8132C4.58896 14.9916 4.60681 15.3307 4.6961 15.7234C4.80323 16.2409 5.01751 16.9727 5.51749 17.5438C6.2496 18.4183 7.26742 18.7217 7.7674 18.8288C7.51741 17.9364 7.12457 17.0976 6.62459 16.4551C5.94604 15.5449 4.96394 14.9916 4.58896 14.8132ZM7.83882 19.0072C7.83882 19.0251 7.83882 19.0251 7.83882 19.0072C7.83882 19.0251 7.83882 19.0251 7.83882 19.0072ZM7.94596 19.1322L7.89239 19.0965C7.41027 19.0072 6.21389 18.7038 5.35678 17.6866C4.82109 17.0619 4.5711 16.2766 4.46396 15.7234C4.41039 15.4021 4.39254 15.1344 4.37468 14.9738C4.35682 14.6347 4.37468 14.6168 4.41039 14.599L4.48182 14.5276L4.55324 14.5811C4.66038 14.599 4.9818 14.7596 5.35678 14.9916C5.76748 15.2593 6.35674 15.7055 6.82101 16.3302C7.3567 17.0262 7.78525 17.9543 8.03524 18.918C8.03524 18.9359 8.03524 18.9359 8.0531 18.9537L8.07095 19.0251L7.94596 19.1322Z" fill="#DA0A1A"/>
<path d="M11.6959 15.9732C11.1781 15.9911 10.1424 16.0982 9.32102 16.7228C8.41034 17.401 8.14249 18.454 8.07107 18.8288C8.44605 18.7395 9.48172 18.4183 10.321 17.7223C11.0531 17.1154 11.4995 16.3659 11.6959 15.9732ZM7.94607 19.1143L7.91036 19.0965H7.87465L7.85679 19.0786L7.82108 19.0608L7.80322 18.9894C7.80322 18.9359 7.85679 18.5432 8.03536 18.0792C8.21392 17.633 8.55319 17.0084 9.16031 16.5622C9.64243 16.2231 10.1781 15.9732 10.821 15.8483C11.1424 15.7769 11.4816 15.7412 11.8209 15.7412L11.8923 15.7055L11.9995 15.8483L11.9638 15.9197V15.9375C11.8031 16.2945 11.3388 17.1868 10.4638 17.9186C9.91028 18.3826 9.26745 18.6682 8.82104 18.8466C8.46391 18.9894 8.12464 19.0786 7.98179 19.0965L7.94607 19.1143Z" fill="#DA0A1A"/>
<path d="M5.94604 10.512C5.91033 10.6905 5.82105 11.0296 5.80319 11.4579C5.76748 11.9755 5.80319 12.7429 6.16032 13.4032C6.67816 14.4027 7.58883 14.8845 8.07095 15.0809C8.03524 14.1707 7.85668 13.2605 7.53526 12.5287C7.08885 11.4757 6.26746 10.744 5.94604 10.512ZM8.16024 15.4021L8.10667 15.3486C7.78525 15.2236 7.48169 15.063 7.19599 14.8845C6.6603 14.5098 6.2496 14.0457 5.9639 13.5103C5.58892 12.7786 5.5532 11.9576 5.58892 11.3865C5.60677 11.0653 5.66034 10.7975 5.69605 10.6191C5.76748 10.2978 5.78534 10.2621 5.82105 10.2443L5.89247 10.2086L5.94604 10.2621C6.14246 10.3871 7.19599 11.1902 7.73168 12.4395C8.07095 13.2426 8.26737 14.2242 8.26737 15.2236V15.2593V15.3307L8.16024 15.4021Z" fill="#DA0A1A"/>
<path d="M11.8747 12.9035C11.3569 12.9035 10.714 12.9928 10.1069 13.2783C9.05339 13.7959 8.5177 14.7775 8.33914 15.1344C8.74983 15.1166 9.83907 14.9916 10.8212 14.4562C11.714 13.9743 12.3211 13.314 12.6247 12.9571C12.4282 12.9392 12.1783 12.9035 11.8747 12.9035ZM8.17843 15.3843L8.12486 15.3486L8.107 15.3307L8.07129 15.3129V15.2415C8.07129 15.188 8.232 14.7953 8.53556 14.367C8.82126 13.9565 9.30338 13.4032 10.0176 13.0641C11.1426 12.5287 12.339 12.6715 12.8211 12.7607L12.8925 12.725L12.9818 12.8857L12.9104 12.9571C12.9104 12.9571 12.9104 12.9571 12.9104 12.9749C12.9104 12.9749 12.9104 12.9928 12.8925 12.9928C12.6425 13.2962 11.964 14.0993 10.9283 14.6525C10.2676 15.0095 9.55337 15.1701 9.0891 15.2593C8.8034 15.3129 8.57127 15.3486 8.42842 15.3486C8.33913 15.3486 8.28557 15.3664 8.232 15.3664H8.19628L8.17843 15.3843Z" fill="#DA0A1A"/>
<path d="M8.44584 6.46068C8.35656 6.62131 8.19585 6.96041 8.03515 7.38874C7.85658 7.90631 7.67802 8.67374 7.85658 9.40547C8.08872 10.4941 8.8744 11.1545 9.28509 11.44C9.51723 10.4941 9.5708 9.54825 9.46366 8.74512C9.30295 7.56721 8.67798 6.72839 8.44584 6.46068ZM9.24938 11.6007C9.24938 11.6007 9.24938 11.6185 9.24938 11.6007C9.24938 11.6185 9.24938 11.6007 9.24938 11.6007ZM9.30295 11.7613L9.26724 11.6899C8.98153 11.5114 8.73155 11.2973 8.49941 11.0474C8.07086 10.5834 7.7673 10.048 7.64231 9.45901C7.46374 8.65589 7.66016 7.83492 7.85658 7.26381C7.96372 6.94256 8.08872 6.67485 8.178 6.51423C8.32085 6.21082 8.35656 6.19298 8.39227 6.17513L8.4637 6.13943L8.51727 6.21082C8.67798 6.3536 9.49937 7.35304 9.69579 8.72728C9.80293 9.58394 9.7315 10.6012 9.48151 11.6007C9.48151 11.6185 9.48151 11.6364 9.46366 11.6364V11.6899L9.30295 11.7613Z" fill="#DA0A1A"/>
<path d="M9.55335 11.5293C9.71406 11.5471 9.9819 11.565 10.3033 11.565C10.7676 11.565 11.464 11.5114 12.1604 11.2973C13.1603 10.976 13.9639 10.4228 14.3567 10.1015C13.8746 9.94088 12.8746 9.69102 11.7854 9.99442C11.0533 10.1907 10.464 10.6191 10.1069 10.9403C9.83905 11.1723 9.66049 11.4043 9.55335 11.5293ZM10.2855 11.797H10.2676C9.87476 11.797 9.51764 11.7613 9.37478 11.7434H9.32122L9.2855 11.7078L9.26765 11.6899V11.6721L9.23193 11.6542L9.24979 11.6007C9.26765 11.5293 9.53549 11.1723 9.92833 10.8154C10.3033 10.4584 10.9461 9.99442 11.7318 9.78026C12.9818 9.44116 14.1424 9.7981 14.5889 9.97658L14.6603 9.95873L14.7138 10.1372L14.6603 10.1729C14.6603 10.1729 14.6424 10.1729 14.6424 10.1907L14.6246 10.2086C14.3031 10.4584 13.3925 11.1545 12.2318 11.5114C11.4997 11.7434 10.7676 11.797 10.2855 11.797Z" fill="#DA0A1A"/>
<path d="M15.5885 4.64027C15.0528 4.74735 13.6957 5.10429 12.6243 6.06804C11.5529 7.01394 11.2494 8.13831 11.1779 8.56665C11.7136 8.31679 12.785 7.78137 13.7135 6.9604C14.5885 6.15728 15.267 5.15783 15.5885 4.64027ZM10.9637 8.87005L10.9279 8.79866C10.9101 8.76297 10.9101 8.76297 10.9279 8.67373C10.9279 8.63804 10.9458 8.56665 10.9637 8.47741C10.9994 8.31679 11.0529 8.08477 11.1601 7.79922C11.3565 7.2995 11.7315 6.56776 12.4636 5.90742C13.1957 5.24707 14.0528 4.87228 14.6421 4.65811C14.9813 4.55103 15.267 4.46179 15.4456 4.4261C15.7849 4.35471 15.8027 4.37256 15.8385 4.37256L15.9099 4.40825V4.55103L15.8742 4.56888C15.6063 5.0329 14.8742 6.19297 13.8385 7.12103C12.8029 8.04908 11.6065 8.62019 11.1244 8.83435V8.8522L10.9637 8.87005Z" fill="#DA0A1A"/>
<path d="M26.0526 33.874C24.4276 34.6592 22.6599 35.266 20.8207 35.7122C20.7849 35.7301 20.7671 35.7479 20.7671 35.8014C20.7671 35.8193 20.7849 35.8371 20.8028 35.8371C20.8207 35.855 20.8385 35.855 20.8564 35.855C22.767 35.4088 24.5705 34.7663 26.2311 33.9632C27.8918 33.1601 29.4096 32.1785 30.7488 31.0541C32.0523 29.9654 33.1773 28.7518 34.1058 27.4133C35.0165 26.1104 35.7486 24.7183 36.2486 23.2549C36.6771 22.0056 36.9628 20.7206 37.07 19.4356C37.1771 18.1327 37.1414 16.8299 36.9093 15.5449C36.695 14.2421 36.2843 12.9571 35.7307 11.7256C35.1772 10.512 34.4629 9.35192 33.6237 8.26324L33.5166 8.35248C36.945 12.7072 37.8914 18.1149 36.1057 23.2013C35.57 24.7005 34.8201 26.1461 33.8558 27.4847C32.9094 28.8054 31.7666 30.0011 30.4453 31.0898C29.1417 32.1785 27.6597 33.1065 26.0526 33.874Z" fill="white"/>
<path d="M8.05314 15.5449C7.83887 16.8299 7.7853 18.1327 7.89244 19.4356C7.99957 20.7206 8.28528 22.0056 8.71383 23.2549C9.23167 24.7184 9.94592 26.1104 10.8566 27.4133C11.7851 28.734 12.9279 29.9654 14.2136 31.0541C15.5528 32.1785 17.0706 33.1601 18.7313 33.9632C20.3919 34.7663 22.1954 35.391 24.106 35.8372C24.1239 35.8372 24.1418 35.8372 24.1596 35.8193C24.1775 35.8015 24.1775 35.8015 24.1953 35.7836C24.1953 35.7479 24.1775 35.7122 24.1418 35.6944C22.3025 35.266 20.5348 34.6414 18.9098 33.874C17.3028 33.1065 15.8207 32.1606 14.4993 31.0898C13.1779 30.019 12.0351 28.8054 11.0887 27.4847C10.1245 26.1461 9.37452 24.7184 8.83882 23.2013C7.05319 18.1149 7.99957 12.7072 11.428 8.35249L11.3387 8.2811C10.4816 9.36978 9.78521 10.5298 9.23167 11.7435C8.67812 12.9571 8.28528 14.2421 8.05314 15.5449Z" fill="white"/>
<path d="M26.4271 16.1339C26.4271 12.9392 25.1593 11.1902 22.588 11.1902C20.4274 11.1902 18.9989 12.7072 18.7846 16.3302H26.4271V16.1339ZM29.177 18.4183H18.7668C19.0525 22.2019 20.8024 23.6475 23.1594 23.6475C24.7665 23.6475 25.9807 23.2192 27.4092 22.2197L28.6592 23.9152C27.0521 25.1824 25.2129 25.9498 22.963 25.9498C18.4096 25.9498 15.749 22.7552 15.749 17.5973C15.749 12.5287 18.3203 8.90575 22.5345 8.90575C26.9271 8.90575 29.2485 11.9755 29.2485 16.9548C29.2485 17.5259 29.2127 18.0435 29.177 18.4183Z" fill="white"/>
</g>
<path d="M97.5981 26.3555C97.5981 29.4581 99.8249 31.8482 103.046 31.8482C105.733 31.8482 107.188 30.141 107.188 30.141L106.179 28.7604C106.179 28.7604 104.947 30.0965 103.121 30.0965C100.924 30.0965 99.5726 28.3299 99.5726 26.3258C99.5726 24.3662 100.879 22.7035 103.106 22.7035C104.783 22.7035 105.986 23.8169 105.986 23.8169L106.906 22.3918C106.906 22.3918 105.585 20.9518 103.017 20.9518C99.914 20.9518 97.5981 23.2973 97.5981 26.3555Z" fill="#4B6E8D"/>
<path d="M109.236 26.3258C109.236 29.4285 111.581 31.8482 114.684 31.8482C117.787 31.8482 120.132 29.4285 120.132 26.3258C120.132 23.3122 117.787 20.9518 114.684 20.9518C111.581 20.9518 109.236 23.3122 109.236 26.3258ZM111.21 26.3258C111.21 24.2474 112.754 22.7035 114.684 22.7035C116.614 22.7035 118.158 24.2474 118.158 26.3258C118.158 28.4932 116.614 30.0965 114.684 30.0965C112.754 30.0965 111.21 28.4932 111.21 26.3258Z" fill="#4B6E8D"/>
<path d="M123.152 31.6701H129.624V30.0223H125.067V21.1299H123.152V31.6701Z" fill="#4B6E8D"/>
<path d="M132.223 31.6701H138.77V30.0223H134.138V27.1868H137.686V25.539H134.138V22.7777H138.532V21.1299H132.223V31.6701Z" fill="#4B6E8D"/>
<path d="M141.06 26.3852C141.06 29.6957 143.451 31.8482 146.227 31.8482C148.186 31.8482 149.285 30.72 149.285 30.72H149.315C149.315 30.72 149.3 30.9427 149.3 31.1654V31.6701H150.933V26.1179H147.592V27.7658H149.211V28.9979C149.211 28.9979 148.157 30.0965 146.568 30.0965C144.594 30.0965 143.035 28.612 143.035 26.3258C143.035 24.3365 144.297 22.7035 146.657 22.7035C148.335 22.7035 149.463 23.713 149.463 23.713L150.413 22.2878C150.413 22.2878 149.077 20.9518 146.494 20.9518C143.362 20.9518 141.06 23.327 141.06 26.3852Z" fill="#4B6E8D"/>
<path d="M154.121 31.6701H156.036V21.1299H154.121V31.6701Z" fill="#4B6E8D"/>
<path d="M159.044 26.3258C159.044 29.4285 161.389 31.8482 164.492 31.8482C167.594 31.8482 169.94 29.4285 169.94 26.3258C169.94 23.3122 167.594 20.9518 164.492 20.9518C161.389 20.9518 159.044 23.3122 159.044 26.3258ZM161.018 26.3258C161.018 24.2474 162.562 22.7035 164.492 22.7035C166.422 22.7035 167.966 24.2474 167.966 26.3258C167.966 28.4932 166.422 30.0965 164.492 30.0965C162.562 30.0965 161.018 28.4932 161.018 26.3258Z" fill="#4B6E8D"/>
<path d="M177.638 31.6701H184.185V30.0223H179.553V27.1868H183.102V25.539H179.553V22.7777H183.948V21.1299H177.638V31.6701Z" fill="#4B6E8D"/>
<path d="M187.246 31.6701H190.839C194.09 31.6701 196.213 29.7105 196.213 26.3852C196.213 23.0598 194.09 21.1299 190.839 21.1299H187.246V31.6701ZM189.161 30.0223V22.7777H190.735C192.843 22.7777 194.238 24.0396 194.238 26.3852C194.238 28.7604 192.873 30.0223 190.735 30.0223H189.161Z" fill="#4B6E8D"/>
<path d="M199.141 27.8845C199.141 30.245 200.848 31.8482 203.402 31.8482C205.94 31.8482 207.648 30.245 207.648 27.8845V21.1299H205.733V27.8697C205.733 29.2948 204.797 30.0965 203.387 30.0965C201.977 30.0965 201.056 29.2948 201.056 27.8845V21.1299H199.141V27.8845Z" fill="#4B6E8D"/>
<path d="M210.519 26.3555C210.519 29.4581 212.745 31.8482 215.967 31.8482C218.654 31.8482 220.109 30.141 220.109 30.141L219.099 28.7604C219.099 28.7604 217.867 30.0965 216.041 30.0965C213.844 30.0965 212.493 28.3299 212.493 26.3258C212.493 24.3662 213.8 22.7035 216.026 22.7035C217.704 22.7035 218.906 23.8169 218.906 23.8169L219.827 22.3918C219.827 22.3918 218.505 20.9518 215.937 20.9518C212.835 20.9518 210.519 23.2973 210.519 26.3555Z" fill="#4B6E8D"/>
<path d="M229.073 31.6701H231.047L227.336 21.1299H225.332L221.62 31.6701H223.595L224.486 28.9682H228.182L229.073 31.6701ZM226.356 22.9559C226.356 22.9559 226.579 23.9951 226.772 24.5889L227.707 27.4095H224.946L225.881 24.5889C226.089 23.9951 226.326 22.9559 226.326 22.9559H226.356Z" fill="#4B6E8D"/>
<path d="M233.463 31.6701H235.378V27.7361H237.219L239.312 31.6701H241.45L239.282 27.7361C239.074 27.3649 238.926 27.2165 238.926 27.2165V27.1868C240.039 26.7414 240.707 25.5687 240.707 24.3068C240.707 22.9113 240.039 21.9019 238.985 21.4268C238.525 21.219 238.005 21.1299 236.862 21.1299H233.463V31.6701ZM235.378 26.0734V22.7777H236.833C238.332 22.7777 238.763 23.4012 238.763 24.4107C238.763 25.4647 238.124 26.0734 237.1 26.0734H235.378Z" fill="#4B6E8D"/>
<path d="M244.303 31.6701H250.85V30.0223H246.218V27.1868H249.766V25.539H246.218V22.7777H250.612V21.1299H244.303V31.6701Z" fill="#4B6E8D"/>
<path d="M112.184 72.2474L110.754 66.1925H103.233L101.804 72.2474H96.877L104.098 46.2601H110.04L117.223 72.2474H112.184ZM104.06 62.5069H109.927L106.994 49.9833L104.06 62.5069Z" fill="#C92317"/>
<path d="M127.797 51.7885C129.376 51.7885 130.617 52.315 131.52 53.3681C132.423 54.4211 132.874 55.8502 132.874 57.6554V72.2474H128.173V58.2948C128.173 57.2417 127.997 56.5021 127.646 56.0759C127.32 55.6246 126.832 55.3989 126.18 55.3989C125.503 55.3989 124.876 55.6496 124.299 56.1511C123.723 56.6525 123.158 57.3922 122.607 58.37V72.2474H117.906V52.3527H122.005L122.344 54.9476C123.071 53.9197 123.873 53.1424 124.751 52.6159C125.653 52.0643 126.669 51.7885 127.797 51.7885Z" fill="#C92317"/>
<path d="M146.578 71.3072C145.926 71.8086 145.199 72.1847 144.397 72.4355C143.62 72.6862 142.817 72.8115 141.99 72.8115C140.16 72.8115 138.756 72.285 137.778 71.232C136.825 70.179 136.349 68.7122 136.349 66.8318V55.7374H133.678V52.3527H136.349V47.9525L141.05 47.3884V52.3527H145.224L144.735 55.7374H141.05V66.7942C141.05 67.5464 141.188 68.1105 141.463 68.4866C141.764 68.8376 142.228 69.0131 142.855 69.0131C143.532 69.0131 144.221 68.8 144.923 68.3738L146.578 71.3072Z" fill="#C92317"/>
<path d="M160.418 67.2455C160.418 67.9475 160.518 68.4741 160.719 68.8251C160.92 69.151 161.246 69.4143 161.697 69.6148L160.719 72.7363C159.641 72.611 158.763 72.3352 158.086 71.9089C157.435 71.4827 156.946 70.8183 156.62 69.9157C155.391 71.8463 153.611 72.8115 151.279 72.8115C149.499 72.8115 148.083 72.2474 147.03 71.1192C145.977 69.9909 145.45 68.5117 145.45 66.6814C145.45 64.5252 146.165 62.883 147.594 61.7547C149.023 60.6014 151.091 60.0247 153.799 60.0247H155.792V58.7837C155.792 57.5301 155.542 56.64 155.04 56.1135C154.539 55.587 153.724 55.3237 152.596 55.3237C151.292 55.3237 149.687 55.6622 147.782 56.3391L146.691 53.2176C148.973 52.2649 151.192 51.7885 153.348 51.7885C158.061 51.7885 160.418 54.0325 160.418 58.5204V67.2455ZM152.558 69.3892C153.937 69.3892 155.015 68.5743 155.792 66.9447V62.8077H154.288C151.53 62.8077 150.151 63.9861 150.151 66.3429C150.151 67.3458 150.364 68.1105 150.79 68.637C151.217 69.1385 151.806 69.3892 152.558 69.3892Z" fill="#C92317"/>
<path d="M182.988 51.7885C184.417 51.7885 185.57 52.3276 186.447 53.4057C187.325 54.4587 187.764 55.8753 187.764 57.6554V72.2474H183.1V58.2571C183.1 56.3266 182.511 55.3613 181.333 55.3613C180.706 55.3613 180.129 55.612 179.603 56.1135C179.076 56.5898 178.562 57.3044 178.061 58.2571V72.2474H173.435V58.2571C173.435 56.3266 172.846 55.3613 171.667 55.3613C171.016 55.3613 170.426 55.612 169.9 56.1135C169.373 56.6149 168.872 57.3295 168.396 58.2571V72.2474H163.732V52.3527H167.831L168.17 54.91C169.549 52.829 171.266 51.7885 173.322 51.7885C174.35 51.7885 175.24 52.0894 175.992 52.6911C176.745 53.2678 177.296 54.0826 177.647 55.1357C178.349 54.0576 179.126 53.2302 179.979 52.6535C180.856 52.0769 181.859 51.7885 182.988 51.7885Z" fill="#C92317"/>
<path d="M195.571 52.3527V72.2474H190.87V52.3527H195.571ZM193.24 42.3489C194.092 42.3489 194.782 42.6247 195.308 43.1762C195.86 43.7028 196.135 44.3797 196.135 45.2071C196.135 46.0345 195.86 46.724 195.308 47.2755C194.782 47.8021 194.092 48.0653 193.24 48.0653C192.387 48.0653 191.685 47.8021 191.134 47.2755C190.607 46.724 190.344 46.0345 190.344 45.2071C190.344 44.3797 190.607 43.7028 191.134 43.1762C191.685 42.6247 192.387 42.3489 193.24 42.3489Z" fill="#C92317"/>
<path d="M208.051 51.8261C208.578 51.8261 209.167 51.9139 209.819 52.0894L209.029 56.64C208.502 56.4896 207.976 56.4143 207.449 56.4143C206.396 56.4143 205.556 56.828 204.93 57.6554C204.328 58.4828 203.864 59.7364 203.538 61.4162V72.2474H198.837V52.3527H202.936L203.312 56.0383C203.789 54.6593 204.428 53.6188 205.23 52.9168C206.033 52.1897 206.973 51.8261 208.051 51.8261Z" fill="#C92317"/>
<path d="M223.136 67.2455C223.136 67.9475 223.236 68.4741 223.437 68.8251C223.637 69.151 223.963 69.4143 224.414 69.6148L223.437 72.7363C222.359 72.611 221.481 72.3352 220.804 71.9089C220.152 71.4827 219.663 70.8183 219.337 69.9157C218.109 71.8463 216.329 72.8115 213.997 72.8115C212.217 72.8115 210.8 72.2474 209.747 71.1192C208.694 69.9909 208.168 68.5117 208.168 66.6814C208.168 64.5252 208.882 62.883 210.311 61.7547C211.74 60.6014 213.809 60.0247 216.517 60.0247H218.51V58.7837C218.51 57.5301 218.259 56.64 217.758 56.1135C217.256 55.587 216.442 55.3237 215.313 55.3237C214.01 55.3237 212.405 55.6622 210.499 56.3391L209.409 53.2176C211.69 52.2649 213.909 51.7885 216.065 51.7885C220.779 51.7885 223.136 54.0325 223.136 58.5204V67.2455ZM215.276 69.3892C216.655 69.3892 217.733 68.5743 218.51 66.9447V62.8077H217.006C214.248 62.8077 212.869 63.9861 212.869 66.3429C212.869 67.3458 213.082 68.1105 213.508 68.637C213.934 69.1385 214.523 69.3892 215.276 69.3892Z" fill="#C92317"/>
<defs>
<clipPath id="clip0">
<rect width="79.1753" height="96" fill="white"/>
</clipPath>
</defs>
</svg>
